<?xml version="1.0" standalone="no"?>
<!DOCTYPE svg PUBLIC "-//W3C//DTD SVG 20010904//EN"
 "http://www.w3.org/TR/2001/REC-SVG-20010904/DTD/svg10.dtd">
<svg version="1.0" xmlns="http://www.w3.org/2000/svg"
 width="1200.000000pt" height="1200.000000pt" viewBox="0 0 1200.000000 1200.000000"
 preserveAspectRatio="xMidYMid meet">
<metadata>
Created by potrace 1.14, written by Peter Selinger 2001-2017
</metadata>
<g transform="translate(0.000000,1200.000000) scale(0.100000,-0.100000)"
fill="#000000" stroke="none">
<path d="M5680 10240 c-166 -15 -281 -30 -425 -55 -1405 -245 -2603 -1200
-3168 -2526 -292 -685 -398 -1467 -301 -2214 193 -1489 1165 -2766 2555 -3358
685 -292 1467 -398 2214 -301 1489 193 2766 1165 3358 2555 322 756 416 1613
267 2436 -269 1483 -1341 2733 -2771 3232 -324 112 -588 173 -949 216 -157 19
-635 28 -780 15z m-821 -2159 c56 -17 79 -38 126 -119 59 -99 48 -81 164 -270
56 -89 113 -186 127 -215 15 -28 47 -83 71 -121 47 -73 191 -364 213 -431 7
-22 20 -56 29 -75 16 -35 110 -191 121 -200 3 -3 26 -50 50 -105 25 -55 49
-103 55 -107 5 -4 6 -8 2 -8 -10 0 77 -166 99 -188 19 -18 45 -77 49 -107 1
-11 3 -22 4 -24 0 -2 51 95 113 215 61 120 164 311 228 424 64 113 127 231
139 263 29 72 82 161 181 302 43 61 112 173 155 250 127 228 256 448 278 473
46 50 151 62 463 53 117 -3 136 -6 185 -30 34 -16 62 -39 77 -61 l23 -36 6
-889 c4 -490 7 -1338 7 -1885 1 -547 5 -1049 10 -1115 10 -144 2 -171 -66
-204 -50 -24 -99 -29 -402 -41 -279 -11 -318 -2 -344 80 -14 44 -21 538 -23
1603 -1 438 -3 797 -5 797 -2 0 -37 -66 -80 -147 -42 -82 -103 -188 -135 -238
-32 -49 -80 -138 -108 -196 -27 -59 -75 -140 -106 -180 -61 -79 -88 -128 -139
-249 -18 -42 -57 -118 -88 -170 -31 -52 -68 -117 -83 -145 -38 -69 -69 -100
-126 -124 -55 -24 -150 -37 -203 -27 -64 12 -100 54 -188 219 -15 28 -41 67
-58 88 -16 21 -42 65 -56 98 -15 34 -31 61 -36 61 -5 0 -7 3 -4 8 2 4 -31 61
-75 127 -43 66 -104 169 -134 228 -57 109 -132 238 -145 247 -13 9 -108 175
-166 291 l-59 117 -2 -957 c-2 -526 -5 -976 -9 -1001 -3 -25 -9 -130 -13 -235
-6 -147 -11 -197 -24 -222 -40 -76 -82 -89 -233 -69 -72 9 -153 12 -236 9 -82
-4 -149 -2 -189 6 -125 25 -146 61 -133 230 5 64 9 580 10 1146 1 567 4 1414
8 1884 6 837 7 855 27 888 22 36 60 65 99 78 68 22 479 26 549 6z"/>
</g>
</svg>
